<svg width="34" height="24" viewBox="0 0 34 24" fill="none" xmlns="http://www.w3.org/2000/svg">
<rect x="0.5" y="0.5" width="33" height="23" rx="3.5" fill="white" stroke="#D9D9D9"/>
<path fill-rule="evenodd" clip-rule="evenodd" d="M27.2933 13.9481H28.1319H28.1326C28.2203 13.9499 28.2932 13.8774 28.2965 13.7852V11.3417C28.2965 11.0348 28.3121 10.7577 28.4298 10.4805C28.5105 10.2697 28.7009 10.1277 28.9168 10.1172C29.4533 10.1172 29.4481 10.7352 29.4441 11.2206C29.4437 11.2616 29.4434 11.3016 29.4434 11.3402V13.8056C29.4538 13.8847 29.5165 13.9447 29.5923 13.9481H30.4384C30.5186 13.9499 30.5877 13.889 30.6 13.8056V10.9487C30.6 10.5095 30.6 9.89802 30.3803 9.53474C30.1427 9.14328 29.7748 9 29.398 9C28.817 9 28.4871 9.29595 28.2518 9.91681H28.2354V9.22235C28.2184 9.14975 28.1575 9.09791 28.0864 9.09552H27.3059C27.2235 9.09338 27.1532 9.15806 27.1443 9.24427V13.7852C27.1454 13.8723 27.2106 13.9436 27.2933 13.9481ZM26.5039 11.5664C26.5039 10.1337 25.8284 9.00626 24.5794 9.00626C23.3625 9.00626 22.687 10.1149 22.687 11.5187C22.687 12.9225 23.3543 14.0499 24.5794 14.0499C25.7591 14.0499 26.5039 12.9514 26.5039 11.5664ZM23.9277 11.3754C23.9277 10.8211 23.9672 9.93325 24.5876 9.93325C24.8542 9.93325 25.0426 10.0593 25.1372 10.3725C25.2474 10.735 25.2631 11.1938 25.2631 11.5758C25.2631 12.1583 25.2385 13.1135 24.5794 13.1135C23.9275 13.1135 23.9276 11.9554 23.9277 11.3938L23.9277 11.3754ZM8.19103 13.9575H9.03186H9.0326C9.0748 13.9585 9.11566 13.9419 9.14614 13.9111C9.17661 13.8804 9.19418 13.8382 9.19496 13.7938V11.3879L9.19494 11.3503C9.1946 10.8271 9.19414 10.1352 9.77587 10.1352C10.3137 10.1352 10.3053 10.7431 10.2986 11.2341V11.2341V11.2341V11.2341V11.2341C10.2979 11.287 10.2972 11.3386 10.2972 11.3879V13.7946C10.2986 13.8815 10.3636 13.9526 10.4462 13.9575H11.2892C11.3313 13.9583 11.372 13.9415 11.4023 13.9109C11.4326 13.8802 11.45 13.8381 11.4508 13.7938V11.3879L11.4508 11.3307V11.3307C11.4502 11.0758 11.4496 10.7318 11.5298 10.5181C11.6116 10.2996 11.8093 10.1534 12.0325 10.1462C12.276 10.1462 12.4644 10.2323 12.527 10.5377C12.5589 10.6846 12.5548 11.0253 12.5521 11.2512V11.2512L12.5521 11.2513C12.5514 11.3046 12.5508 11.3515 12.5508 11.3879V13.7946C12.5519 13.8817 12.6171 13.9529 12.6998 13.9575H13.5406C13.5828 13.9585 13.6237 13.9419 13.6542 13.9111C13.6846 13.8804 13.7022 13.8382 13.703 13.7938V10.9291C13.703 10.8593 13.7041 10.788 13.7053 10.7159V10.7159V10.7158V10.7158V10.7157C13.7122 10.288 13.7195 9.83268 13.4907 9.50576C13.2134 9.13493 12.7674 8.95015 12.324 9.02235C11.8806 9.09455 11.5086 9.41252 11.351 9.85416C11.1149 9.28028 10.7776 9.0133 10.2592 9.0133C9.74087 9.0133 9.35583 9.28028 9.15176 9.85416H9.13612V9.26149C9.13169 9.17701 9.06753 9.10956 8.98717 9.1049H8.20294C8.11634 9.104 8.0449 9.17597 8.04207 9.26697V13.8079C8.04971 13.8897 8.11303 13.9532 8.19103 13.9575ZM6.72757 13.992C6.67219 14.0424 6.5926 14.0509 6.52872 14.0131C6.29043 13.8047 6.21858 13.692 6.10826 13.519L6.10825 13.519L6.10824 13.519C6.08927 13.4892 6.06916 13.4577 6.04686 13.4235C5.58437 13.9184 5.25742 14.0663 4.65938 14.0663C3.95111 14.0663 3.39999 13.6068 3.39999 12.6876C3.39999 11.9697 3.77237 11.4819 4.2937 11.2423C4.67866 11.0647 5.1923 11.0096 5.63636 10.962C5.71892 10.9531 5.79909 10.9445 5.87557 10.9354V10.8211C5.87557 10.7993 5.87574 10.777 5.87591 10.7545C5.87738 10.5596 5.87902 10.3426 5.77354 10.1791C5.67076 10.0163 5.47563 9.9497 5.30136 9.9497C4.98037 9.9497 4.69438 10.1227 4.62438 10.4805C4.6155 10.564 4.55441 10.6308 4.47542 10.6434L3.66662 10.5502C3.62626 10.5441 3.59003 10.5209 3.56639 10.486C3.54274 10.4511 3.53375 10.4075 3.5415 10.3654C3.72843 9.32571 4.62214 9.01176 5.42276 9.01176C5.83237 9.01176 6.36711 9.12606 6.68884 9.45176C7.06653 9.8235 7.0642 10.3101 7.06164 10.842C7.06143 10.8859 7.06122 10.9301 7.06122 10.9746V12.3517C7.06122 12.7226 7.19212 12.9071 7.33001 13.1014C7.34639 13.1245 7.36287 13.1478 7.37923 13.1714C7.43286 13.2497 7.44477 13.3476 7.37923 13.4063C7.20719 13.5574 6.90184 13.8361 6.73427 13.9935L6.72757 13.992ZM5.87928 11.8358L5.8793 11.8786C5.8796 12.2043 5.87985 12.4804 5.72214 12.7753C5.58808 13.0242 5.37582 13.1777 5.13899 13.1777C4.81651 13.1777 4.62809 12.9193 4.62809 12.5357C4.62809 11.7825 5.27081 11.6455 5.87928 11.6455V11.8358ZM18.3568 13.0982C18.3732 13.1213 18.3897 13.1446 18.4061 13.1683C18.4627 13.2497 18.4746 13.3452 18.4024 13.3993C18.2304 13.5504 17.925 13.8299 17.7574 13.9865C17.7017 14.0363 17.6224 14.0444 17.5586 14.0068C17.3193 13.7975 17.2484 13.6865 17.1365 13.5112L17.1364 13.5111C17.1177 13.4818 17.0979 13.4508 17.076 13.4173C16.6142 13.9121 16.2851 14.0601 15.6893 14.0601C14.981 14.0601 14.4299 13.6005 14.4299 12.6821C14.4299 11.9634 14.8 11.4756 15.3273 11.236C15.7131 11.0578 16.2296 11.0029 16.675 10.9556C16.7558 10.947 16.8343 10.9387 16.9092 10.9299V10.818C16.9092 10.7962 16.9093 10.7741 16.9095 10.7517C16.911 10.5567 16.9126 10.3397 16.8064 10.1767C16.7066 10.0139 16.5077 9.94656 16.3342 9.94656C16.0132 9.94656 15.7287 10.1196 15.658 10.4774C15.6489 10.5607 15.5879 10.6274 15.509 10.6402L14.6935 10.5478C14.6529 10.542 14.6163 10.5188 14.5925 10.4836C14.5687 10.4485 14.5597 10.4046 14.5677 10.3623C14.7553 9.32179 15.649 9.00862 16.4497 9.00862C16.8585 9.00862 17.3933 9.12292 17.7157 9.44862C18.0942 9.81843 18.0916 10.3013 18.0886 10.8304C18.0884 10.8771 18.0881 10.9241 18.0881 10.9714V12.3494C18.0881 12.7195 18.219 12.9039 18.3568 13.0982ZM16.1704 13.173C16.4065 13.173 16.6195 13.0195 16.7528 12.7713C16.911 12.4749 16.9109 12.1974 16.9107 11.8677L16.9107 11.8326V11.6416C16.3022 11.6416 15.6595 11.7778 15.6595 12.5318C15.6595 12.9146 15.8479 13.173 16.1704 13.173ZM19.1181 9.25131V9.898C19.1176 9.94237 19.1345 9.98498 19.1648 10.0159C19.195 10.0468 19.236 10.0634 19.2782 10.0616H20.726L19.0659 12.567C18.9902 12.7014 18.9544 12.8565 18.9632 13.0125V13.6741C18.9632 13.7696 19.0637 13.8784 19.1598 13.8244C20.0754 13.3253 21.1642 13.3233 22.0815 13.8189C22.1865 13.8761 22.2855 13.7657 22.2855 13.6701V12.9749C22.2827 12.8686 22.2258 12.7721 22.1366 12.722C21.6532 12.4363 21.0909 12.3525 20.5592 12.3658L21.9921 10.2159C22.1254 10.0233 22.1999 9.90114 22.1999 9.80797V9.25131C22.2003 9.20709 22.1835 9.1646 22.1534 9.1337C22.1234 9.10281 22.0826 9.08618 22.0405 9.08768H19.2752C19.2331 9.08519 19.192 9.10157 19.162 9.13277C19.1321 9.16396 19.1161 9.20703 19.1181 9.25131Z" fill="black"/>
<path fill-rule="evenodd" clip-rule="evenodd" d="M20.5011 16.8449C20.6925 16.3446 21.1185 15.2234 20.9159 14.9518H20.9174C20.7157 14.6795 19.5837 14.8224 19.0745 14.8867L19.0734 14.8868C18.9185 14.9064 18.8947 14.7647 19.0339 14.6621C19.9381 13.9943 21.4194 14.1853 21.5914 14.4108C21.7635 14.6363 21.5445 16.1974 20.6977 16.9428C20.5674 17.0571 20.443 16.996 20.5011 16.8449ZM14.4172 17.6169C16.3863 17.6169 18.6794 16.9631 20.2591 15.7378V15.7402C20.5205 15.5335 20.2963 15.2297 20.0297 15.3487C18.3054 16.1133 16.4546 16.5124 14.5833 16.5231C11.987 16.5231 9.47571 15.7746 7.44401 14.5321C7.26601 14.4233 7.13345 14.6151 7.2824 14.7553C9.23836 16.6105 11.7828 17.631 14.4172 17.6169Z" fill="#FF9900"/>
</svg>
