<svg width="34" height="24" viewBox="0 0 34 24" fill="none" xmlns="http://www.w3.org/2000/svg">
<rect x="0.5" y="0.5" width="33" height="23" rx="3.5" fill="white" stroke="#D9D9D9"/>
<path fill-rule="evenodd" clip-rule="evenodd" d="M6.93575 13.7668C6.7498 13.873 6.55181 13.926 6.34194 13.926H6.17998C6.13791 13.926 6.07783 13.9223 5.90431 13.8907L6.49098 11.3211C6.59891 11.2213 6.71534 11.1565 6.85032 11.1251C6.98529 11.0939 7.07222 11.0855 7.15629 11.0855C7.41408 11.0855 7.61356 11.1626 7.7096 11.3312C7.80549 11.4998 7.85355 11.734 7.85355 12.0337C7.85355 12.2773 7.81447 12.5115 7.73658 12.7363C7.65855 12.9611 7.55212 13.1625 7.41721 13.3405C7.28223 13.5185 7.12163 13.6606 6.93575 13.7668ZM8.25848 10.076C8.0484 9.96987 7.79958 9.91673 7.51161 9.91673C7.37358 9.91673 7.24465 9.93237 7.12476 9.96357C7.00466 9.99491 6.89157 10.0353 6.77168 10.0915L7.32274 7.67792L5.92803 7.90271L4.37143 14.7128C4.54535 14.8004 4.72974 14.869 4.9248 14.9189C5.11966 14.9688 5.30411 15.0063 5.4781 15.0313C5.65203 15.0562 5.80658 15.0702 5.94156 15.0735C6.07653 15.0765 6.17101 15.0781 6.22497 15.0781C6.64479 15.0781 7.03477 14.9953 7.39465 14.8299C7.75459 14.6645 8.06641 14.4397 8.33046 14.1555C8.59436 13.8713 8.80281 13.5372 8.9558 13.1531C9.10879 12.7691 9.18525 12.3616 9.18525 11.9307C9.18525 11.6497 9.15215 11.3874 9.08623 11.1439C9.02016 10.9002 8.91822 10.688 8.78032 10.5068C8.64228 10.3258 8.46836 10.1822 8.25848 10.076ZM11.9473 9.31559L12.1522 8.41818H10.8161L10.6112 9.31559H11.9473ZM13.8805 13.8887C13.7084 13.8887 13.5731 13.8633 13.4749 13.812C13.3764 13.7608 13.3073 13.6888 13.2674 13.5959C13.2273 13.5032 13.212 13.3928 13.2212 13.2647C13.2305 13.1368 13.2535 12.9992 13.2904 12.8519L13.6962 11.0855H15.2177L15.4943 9.91426H13.9635L14.314 8.42618L12.8847 8.65663L11.9809 12.6311C11.9072 12.9575 11.8641 13.2681 11.8519 13.5623C11.8394 13.8568 11.8825 14.1176 11.9809 14.3448C12.0792 14.572 12.2452 14.7513 12.4789 14.8824C12.7124 15.0135 13.0414 15.0791 13.4656 15.0791C13.7607 15.0791 14.0157 15.0535 14.231 15.0024C14.2532 14.9971 14.287 14.9886 14.3089 14.9831L14.5871 13.7713C14.4937 13.8045 14.3998 13.8267 14.3093 13.8456C14.171 13.8744 14.0281 13.8887 13.8805 13.8887ZM30.1143 9.91587H28.7783L28.0012 13.3195H28.0025L27.8958 13.7877C27.8212 13.8095 27.747 13.8291 27.6733 13.8445C27.535 13.8733 27.3921 13.8877 27.2445 13.8877C27.0723 13.8877 26.9371 13.8622 26.8388 13.8109C26.7404 13.7597 26.6712 13.6878 26.6313 13.5949C26.5913 13.5022 26.576 13.3918 26.5852 13.2636C26.5944 13.1357 26.6175 12.9982 26.6544 12.8509L27.0601 11.0844L27.3275 9.91318L27.3276 9.91283H25.9627L25.3449 12.6301C25.2712 12.9565 25.2281 13.267 25.2158 13.5613C25.2034 13.8557 25.2465 14.1166 25.3449 14.3437C25.4432 14.5709 25.6092 14.7502 25.8429 14.8814C26.0764 15.0124 26.4054 15.0781 26.8295 15.0781C27.1246 15.0781 27.3797 15.0525 27.595 15.0013C27.6037 14.9992 27.612 14.997 27.6205 14.9949L27.6199 14.9974C27.5601 15.2777 27.439 15.5051 27.2446 15.6825C27.05 15.8601 26.7613 15.9489 26.3785 15.9489C26.215 15.9489 26.0665 15.9388 25.9319 15.9194L25.669 17.0712C25.8468 17.0952 26.044 17.1076 26.2618 17.1076C26.6686 17.1076 27.0247 17.0592 27.3299 16.9627C27.6351 16.8661 27.8967 16.7198 28.1152 16.5235C28.3335 16.3273 28.516 16.0811 28.6627 15.7854C28.8092 15.4894 28.9274 15.1392 29.0172 14.7342L29.9417 10.6882L29.9383 10.6868L30.1143 9.91587ZM23.5613 11.0855C22.9383 11.0855 22.8194 11.0855 22.5641 11.2233C22.3829 11.3211 22.2329 11.4681 22.1012 11.6397C21.9693 11.8112 21.866 12.0092 21.7912 12.2337C21.7161 12.4584 21.6788 12.6922 21.6788 12.9355C21.6788 13.2349 21.7267 13.472 21.8226 13.6466C21.9183 13.8213 22.0952 13.9085 22.3528 13.9085C22.4906 13.9085 22.6149 13.8805 22.7258 13.8243C22.8366 13.7682 22.955 13.6746 23.0808 13.5436C23.0928 13.3878 23.1123 13.2241 23.1393 13.0524C23.1639 12.8959 23.1945 12.7496 23.2225 12.616L23.2225 12.616L23.2225 12.6159L23.2226 12.6158L23.2226 12.6158L23.2226 12.6157L23.2304 12.5784L23.5613 11.0855ZM24.5098 12.8232C24.4258 13.1788 24.4019 13.5359 24.4379 13.8945C24.4739 14.2533 24.6057 14.803 24.7342 15.0781H23.4413C23.3236 14.8709 23.2976 14.7457 23.2796 14.6592L23.2796 14.6591C23.2734 14.6296 23.2682 14.6045 23.2606 14.5822C23.0928 14.7258 22.907 14.8442 22.7034 14.9378C22.4996 15.0313 22.272 15.0781 22.0203 15.0781C21.7207 15.0781 21.4645 15.0234 21.2519 14.9144C21.0391 14.8053 20.8654 14.6587 20.7307 14.4747C20.5958 14.2908 20.4984 14.0755 20.4386 13.8291C20.3786 13.5827 20.3487 13.3191 20.3487 13.0384C20.3487 12.608 20.422 12.2026 20.5689 11.8221C20.7156 11.4417 20.9194 11.1095 21.18 10.8256C21.4406 10.5418 22.0696 9.91595 23.1018 9.91595L25.1745 9.91588L24.5098 12.8232ZM17.0728 13.9286C16.922 13.9286 16.7953 13.9161 16.6928 13.8909L17.3397 11.0855C17.3397 11.0855 17.6689 11.0855 17.8671 11.0863C18.1506 11.0875 18.3515 11.1876 18.4662 11.376C18.5807 11.5644 18.6381 11.7937 18.6381 12.0636C18.6381 12.34 18.6003 12.5927 18.525 12.8219C18.4495 13.0512 18.3441 13.2473 18.2083 13.4106C18.0726 13.5739 17.9082 13.7011 17.7153 13.7921C17.5221 13.8831 17.3081 13.9286 17.0728 13.9286ZM19.76 13.2175C19.9047 12.8376 19.9771 12.4185 19.9771 11.96C19.9771 11.6774 19.9393 11.4123 19.864 11.164C19.7885 10.9161 19.6724 10.6995 19.5157 10.5141C19.3588 10.329 19.1584 10.183 18.914 10.0762C18.6698 9.96945 18.3787 9.91603 18.0409 9.91603L17.5759 9.91601L16.2567 9.91603L14.7023 16.7261H16.0413L16.4485 15.0213C16.6535 15.059 16.8586 15.0778 17.0637 15.0778C17.4859 15.0778 17.8765 15.0008 18.2355 14.8471C18.5942 14.6932 18.9019 14.4782 19.1584 14.2018C19.4146 13.9256 19.6153 13.5975 19.76 13.2175ZM9.29336 15.0791L10.4728 9.9129H11.8089L10.6294 15.0791H9.29336Z" fill="#002855"/>
</svg>
