<svg width="34" height="24" viewBox="0 0 34 24" fill="none" xmlns="http://www.w3.org/2000/svg">
<rect x="0.5" y="0.5" width="33" height="23" rx="3.5" fill="white" stroke="#D9D9D9"/>
<path fill-rule="evenodd" clip-rule="evenodd" d="M6.18104 7.74278C5.57821 7.74376 5.09047 8.1883 5.0893 8.73765V8.73766V15.3427V15.3427C5.08944 15.4114 5.09719 15.4784 5.11182 15.5431C5.13015 15.6242 5.15929 15.7017 5.19781 15.7743C5.37437 16.1072 5.74801 16.3368 6.18104 16.3376H17.5402V16.3376V7.74279V7.74278H6.18104ZM6.18104 7H27.9207C28.9739 7.00016 29.8271 7.77758 29.8275 8.73765V15.3427C29.8271 16.3024 28.9739 17.0799 27.9207 17.0803H6.18104C5.12781 17.0799 4.27465 16.3024 4.27429 15.3427V8.73765C4.27465 7.77758 5.12781 7.00016 6.18104 7Z" fill="#0F3365"/>
<path fill-rule="evenodd" clip-rule="evenodd" d="M19.3992 14.2623H18.4456V10.7321H19.3251V11.1861H19.3358C19.5265 10.8335 19.9293 10.6742 20.3638 10.6742C21.127 10.6742 21.5453 11.3358 21.5453 11.9442C21.5453 12.6879 21.1055 13.3061 20.2842 13.3061C19.9504 13.3061 19.5901 13.1952 19.4098 12.8958H19.3992V14.2623ZM19.9824 12.6396C20.3425 12.6396 20.5598 12.3645 20.5598 11.9636C20.5598 11.6302 20.3532 11.3406 19.9824 11.3406C19.6325 11.3406 19.3992 11.6207 19.3992 11.9973C19.3992 12.3645 19.6644 12.6396 19.9824 12.6396ZM25.1997 14.2623C25.3959 14.301 25.5918 14.3204 25.7933 14.3204C26.6182 14.3204 26.8487 13.7744 27.0989 13.1818C27.1139 13.1462 27.129 13.1104 27.1443 13.0745L28.1566 10.7321H27.2028L26.6357 12.374H26.6251L26.0316 10.7321H25.004L26.1215 13.3061C26.053 13.5282 25.8728 13.6538 25.64 13.6538C25.5071 13.6538 25.3905 13.6396 25.2636 13.6006L25.1997 14.2623ZM24.8443 13.3299C24.802 13.132 24.7911 12.9341 24.7911 12.736V11.7991C24.7911 11.0312 24.1819 10.7561 23.4771 10.7561C23.0689 10.7561 22.714 10.809 22.3749 10.9348L22.3906 11.5239C22.6558 11.3888 22.963 11.3356 23.2702 11.3356C23.6148 11.3356 23.8958 11.4273 23.901 11.7703C23.7791 11.7508 23.6097 11.7362 23.456 11.7362C22.9473 11.7362 22.0306 11.8282 22.0306 12.596C22.0306 13.1419 22.5181 13.3882 23.0639 13.3882C23.456 13.3882 23.7209 13.2479 23.9381 12.9341H23.9484C23.9484 13.0107 23.954 13.0873 23.9597 13.1648L23.9597 13.1648C23.9637 13.2193 23.9677 13.2743 23.9698 13.3299H24.8443ZM22.9206 12.5334C22.9206 12.2919 23.1749 12.2001 23.4982 12.2001C23.5996 12.2001 23.6982 12.205 23.7904 12.2095L23.7904 12.2095C23.8285 12.2113 23.8654 12.2131 23.901 12.2145C23.901 12.509 23.6733 12.8088 23.3126 12.8088C23.0902 12.8088 22.9206 12.707 22.9206 12.5334Z" fill="#FFFFFE"/>
<path fill-rule="evenodd" clip-rule="evenodd" d="M10.1565 13.248H11.1102V10.7321H10.1565V13.248ZM10.1565 10.3215H11.1102V9.68408H10.1565V10.3215ZM13.4429 10.6742C13.554 10.6742 13.6705 10.6887 13.766 10.7029L13.7182 11.4273C13.6124 11.3985 13.5063 11.3985 13.3952 11.3985C12.9501 11.3985 12.7009 11.6931 12.7009 12.1858V13.248H11.7472V10.7321H12.6162V11.1956H12.6267C12.7911 10.877 13.0296 10.6742 13.4429 10.6742ZM17.0136 11.9926C17.0136 12.8233 16.3194 13.3061 15.4082 13.3061C14.4969 13.3061 13.8027 12.8233 13.8027 11.9926C13.8027 11.157 14.4969 10.6742 15.4082 10.6742C16.3194 10.6742 17.0136 11.157 17.0136 11.9926ZM14.7882 11.9926C14.7882 12.3645 14.9684 12.6976 15.4082 12.6976C15.848 12.6976 16.0282 12.3645 16.0282 11.9926C16.0282 11.6159 15.848 11.2827 15.4082 11.2827C14.9684 11.2827 14.7882 11.6159 14.7882 11.9926ZM8.63449 10.7321H9.49838V12.9537C9.49838 13.987 8.94732 14.3204 7.83456 14.3204C7.37893 14.3204 7.00269 14.2332 6.78006 14.1611L6.82787 13.4752C7.11923 13.6057 7.36297 13.6828 7.76041 13.6828C8.31156 13.6828 8.60815 13.4463 8.60815 12.9537V12.8182H8.59742C8.36974 13.1132 8.05186 13.248 7.67038 13.248C6.91257 13.248 6.44098 12.7269 6.44098 11.9829C6.44098 11.2342 6.82787 10.6742 7.68617 10.6742C8.09407 10.6742 8.42269 10.877 8.62412 11.1859H8.63449V10.7321ZM7.9671 11.3406C7.61205 11.3406 7.42659 11.6255 7.42659 11.9683C7.42659 12.3593 7.68097 12.5817 7.9671 12.5817C8.30609 12.5817 8.57643 12.321 8.57643 11.9345C8.57643 11.6542 8.3962 11.3406 7.9671 11.3406Z" fill="#D8232A"/>
</svg>
