<svg width="401" height="64" viewBox="0 0 401 64" fill="none" xmlns="http://www.w3.org/2000/svg">
<path d="M57.2668 26.5395H26.4812V38.0223H44.6438V44.2799C42.6128 46.4005 40.0862 47.9851 37.2904 48.8916C34.4945 49.7981 31.517 49.9981 28.6246 49.4738C25.7322 48.9495 23.0155 47.7171 20.7179 45.8873C18.4204 44.0575 16.6139 41.6875 15.4604 38.9896C14.3068 36.2918 13.8424 33.3504 14.1086 30.4294C14.3749 27.5083 15.3635 24.6989 16.9859 22.2529C18.6082 19.8069 20.8136 17.8009 23.4043 16.4146C25.995 15.0284 28.89 14.3052 31.8297 14.3101C34.36 14.225 36.8811 14.6542 39.24 15.5716C41.5988 16.4889 43.746 17.8753 45.5511 19.6465L56.5346 12.6584C53.7136 8.78644 49.99 5.65817 45.6856 3.54403C41.3812 1.42988 36.6256 0.393464 31.8297 0.524324C26.4438 0.525741 21.1478 1.90217 16.4456 4.52261C11.7434 7.14305 7.79146 10.9204 4.96572 15.4952C2.13998 20.07 0.534473 25.2901 0.301907 30.6589C0.0693406 36.0277 1.21747 41.3666 3.63706 46.1676C6.05666 50.9686 9.66724 55.0719 14.1253 58.0874C18.5833 61.1029 23.7405 62.9301 29.1062 63.3951C34.472 63.8602 39.8677 62.9477 44.7801 60.7444C49.6925 58.5411 53.9582 55.1203 57.1713 50.8075L57.2668 50.6805V26.5395Z" fill="#3C4257"/>
<path d="M122.866 62.0206L109.686 44.0102C113.022 42.2878 115.799 39.655 117.693 36.4185C119.586 33.1819 120.519 29.475 120.383 25.7297C120.383 12.6904 111.166 2.20813 98.9094 2.20813H69.7793V61.9571H84.424V47.0596H94.9298L104.799 61.9571L122.866 62.0206ZM84.4398 16.9786H96.6968C99.0413 16.9786 101.29 17.9068 102.949 19.5594C104.609 21.212 105.543 23.454 105.547 25.7932C105.547 30.7644 101.488 33.9885 96.6013 33.9885H84.4398V16.9786Z" fill="#3C4257"/>
<path d="M181.842 62.0206H197.76L169.108 2.27161H158.236L128.469 62.0206H144.689L148.748 53.8413H177.767L181.842 62.0206ZM154.781 42.1678L163.266 22.9503L172.196 42.1678H154.781Z" fill="#3C4257"/>
<path d="M247.822 2.27161H187.922V15.1363H210.685V62.0206H225.011V15.1363H247.774L247.822 2.27161Z" fill="#3C4257"/>
<path d="M271.126 2.27161H256.752V62.0365H271.126V2.27161Z" fill="#3C4257"/>
<path d="M329.832 15.1363V2.27161H284.673V62.0206H298.999V41.612H323.242V28.7474H298.999V15.1363H329.832Z" fill="#3C4257"/>
<path d="M382.998 2.27161L366.778 23.9668L350.478 2.27161H332.602L357.895 36.8473V62.0365H375.724V36.8473L400.874 2.27161H382.998Z" fill="#3C4257"/>
</svg>
