<svg width="484" height="63" viewBox="0 0 484 63" fill="none" xmlns="http://www.w3.org/2000/svg">
<path d="M139.738 26.0261H108.952V37.509H127.114V43.7666C125.084 45.8872 122.557 47.4718 119.761 48.3783C116.965 49.2848 113.988 49.4848 111.095 48.9605C108.203 48.4362 105.486 47.2038 103.189 45.374C100.891 43.5442 99.0846 41.1742 97.9311 38.4763C96.7775 35.7785 96.3131 32.8371 96.5793 29.9161C96.8456 26.995 97.8342 24.1856 99.4566 21.7396C101.079 19.2936 103.284 17.2876 105.875 15.9013C108.466 14.5151 111.361 13.7919 114.3 13.7968C116.831 13.7117 119.352 14.1409 121.711 15.0582C124.07 15.9756 126.217 17.362 128.022 19.1332L139.005 12.1451C136.184 8.27314 132.461 5.14486 128.156 3.03072C123.852 0.916579 119.096 -0.119842 114.3 0.0110186C108.914 0.0124353 103.618 1.38886 98.9163 4.00931C94.2141 6.62975 90.2622 10.4071 87.4364 14.9819C84.6107 19.5567 83.0052 24.7768 82.7726 30.1456C82.54 35.5144 83.6882 40.8533 86.1078 45.6543C88.5274 50.4553 92.1379 54.5586 96.596 57.5741C101.054 60.5896 106.211 62.4167 111.577 62.8818C116.943 63.3469 122.338 62.4344 127.251 60.2311C132.163 58.0278 136.429 54.607 139.642 50.2942L139.738 50.1672V26.0261Z" fill="#1601C3"/>
<path d="M205.336 61.5073L192.156 43.4969C195.492 41.7745 198.268 39.1417 200.162 35.9052C202.056 32.6686 202.989 28.9617 202.853 25.2164C202.853 12.1771 193.636 1.69482 181.379 1.69482H152.249V61.4438H166.894V46.5463H177.4L187.269 61.4438L205.336 61.5073ZM166.91 16.4653H179.167C181.511 16.4653 183.76 17.3935 185.419 19.0461C187.078 20.6987 188.013 22.9407 188.017 25.2799C188.017 30.2511 183.958 33.4752 179.071 33.4752H166.91V16.4653Z" fill="#1601C3"/>
<path d="M264.313 61.5073H280.231L251.578 1.7583H240.706L210.939 61.5073H227.16L231.219 53.328H260.238L264.313 61.5073ZM237.252 41.6545L245.736 22.437L254.666 41.6545H237.252Z" fill="#1601C3"/>
<path d="M330.292 1.7583H270.393V14.623H293.155V61.5073H307.482V14.623H330.245L330.292 1.7583Z" fill="#1601C3"/>
<path d="M353.597 1.7583H339.223V61.5232H353.597V1.7583Z" fill="#1601C3"/>
<path d="M412.303 14.623V1.7583H367.144V61.5073H381.47V41.0987H405.713V28.2341H381.47V14.623H412.303Z" fill="#1601C3"/>
<path d="M465.469 1.7583L449.248 23.4535L432.948 1.7583H415.072L440.366 36.334V61.5232H458.194V36.334L483.345 1.7583H465.469Z" fill="#1601C3"/>
<path d="M58.6345 63L58.6345 0H57.1302H55.626L55.626 63H58.6345Z" fill="#1601C3"/>
<path fill-rule="evenodd" clip-rule="evenodd" d="M39.589 13.4182L19.9669 0L0.344727 13.4182V50.4927C0.344727 57.4003 5.95706 63 12.8802 63H27.0535C33.9767 63 39.589 57.4003 39.589 50.4927V13.4182ZM19.9669 3.63909L36.5805 15V50.4927C36.5805 55.7425 32.3151 59.9983 27.0535 59.9983H12.8802C7.61862 59.9983 3.35324 55.7425 3.35324 50.4927V15L19.9669 3.63909Z" fill="#1601C3"/>
<path fill-rule="evenodd" clip-rule="evenodd" d="M19.9664 23.4464C21.6243 23.4464 22.9683 22.1055 22.9683 20.4513C22.9683 18.7972 21.6243 17.4562 19.9664 17.4562C18.3086 17.4562 16.9646 18.7972 16.9646 20.4513C16.9646 22.1055 18.3086 23.4464 19.9664 23.4464ZM19.9664 26.4482C23.2859 26.4482 25.9768 23.7633 25.9768 20.4513C25.9768 17.1394 23.2859 14.4545 19.9664 14.4545C16.647 14.4545 13.9561 17.1394 13.9561 20.4513C13.9561 23.7633 16.647 26.4482 19.9664 26.4482Z" fill="#1601C3"/>
</svg>
