<svg width="59" height="94" viewBox="0 0 59 94" fill="none" xmlns="http://www.w3.org/2000/svg">
<path fill-rule="evenodd" clip-rule="evenodd" d="M58.0259 20.6484L29.1506 0.858154L0.275391 20.6484V80.769C0.275391 87.9525 6.09876 93.7758 13.2823 93.7758H45.019C52.2025 93.7758 58.0259 87.9525 58.0259 80.769V20.6484Z" fill="#3C4257"/>
<path d="M29.1513 39.8661C34.0361 39.8661 37.996 35.9062 37.996 31.0214C37.996 26.1367 34.0361 22.1768 29.1513 22.1768C24.2665 22.1768 20.3066 26.1367 20.3066 31.0214C20.3066 35.9062 24.2665 39.8661 29.1513 39.8661Z" fill="#F7F7FA"/>
<path d="M43.4578 63.1742H26.1747V69.6353H36.3712V73.1562C35.231 74.3494 33.8125 75.2411 32.243 75.7511C30.6734 76.2612 29.0018 76.3737 27.378 76.0787C25.7542 75.7837 24.229 75.0903 22.9391 74.0607C21.6493 73.0311 20.6351 71.6976 19.9875 70.1796C19.3399 68.6616 19.0791 67.0065 19.2286 65.3629C19.3781 63.7194 19.9331 62.1386 20.8439 60.7623C21.7547 59.386 22.9928 58.2572 24.4473 57.4772C25.9017 56.6972 27.527 56.2904 29.1773 56.2931C30.5978 56.2452 32.0132 56.4867 33.3375 57.0029C34.6617 57.5191 35.8672 58.2992 36.8806 59.2957L43.0467 55.3637C41.463 53.1851 39.3726 51.4249 36.9561 50.2353C34.5396 49.0458 31.8697 48.4626 29.1773 48.5362C26.1536 48.537 23.1804 49.3115 20.5406 50.786C17.9008 52.2604 15.6821 54.3858 14.0958 56.9599C12.5094 59.534 11.608 62.4712 11.4775 65.4921C11.3469 68.513 11.9915 71.517 13.3498 74.2184C14.7082 76.9198 16.7352 79.2286 19.238 80.9253C21.7407 82.6221 24.636 83.6502 27.6484 83.9118C30.6607 84.1735 33.6899 83.6601 36.4478 82.4203C39.2056 81.1806 41.6004 79.2558 43.4042 76.8291L43.4578 76.7577V63.1742Z" fill="#F7F7FA"/>
</svg>
