<svg width="76" height="121" viewBox="0 0 76 121" fill="none" xmlns="http://www.w3.org/2000/svg">
<path fill-rule="evenodd" clip-rule="evenodd" d="M75.6667 26.1229L38.2918 0.507324L0.916992 26.1229V103.94C0.916992 113.238 8.45451 120.776 17.7525 120.776H58.8311C68.1291 120.776 75.6667 113.238 75.6667 103.94V26.1229ZM38.2918 5.40575L71.6261 28.2521V103.94C71.6261 111.007 65.8976 116.735 58.8311 116.735H17.7525C10.686 116.735 4.95751 111.007 4.95751 103.94V28.2521L38.2918 5.40575Z" fill="#3C4257"/>
<path fill-rule="evenodd" clip-rule="evenodd" d="M38.2919 46.957C42.383 46.957 45.6995 43.6405 45.6995 39.5493C45.6995 35.4582 42.383 32.1417 38.2919 32.1417C34.2008 32.1417 30.8843 35.4582 30.8843 39.5493C30.8843 43.6405 34.2008 46.957 38.2919 46.957ZM38.2919 50.9975C44.6145 50.9975 49.74 45.872 49.74 39.5493C49.74 33.2267 44.6145 28.1012 38.2919 28.1012C31.9693 28.1012 26.8438 33.2267 26.8438 39.5493C26.8438 45.872 31.9693 50.9975 38.2919 50.9975Z" fill="#3C4257"/>
<path d="M56.8109 81.1664H34.4403V89.5294H47.6382V94.0868C46.1624 95.6312 44.3264 96.7853 42.2948 97.4454C40.2632 98.1056 38.0996 98.2513 35.9978 97.8695C33.896 97.4876 31.9219 96.5901 30.2523 95.2574C28.5828 93.9248 27.2701 92.1987 26.4319 90.2339C25.5937 88.269 25.2562 86.1268 25.4497 83.9995C25.6431 81.8721 26.3615 79.8259 27.5404 78.0445C28.7193 76.2631 30.3219 74.8021 32.2044 73.7926C34.087 72.783 36.1906 72.2563 38.3268 72.2598C40.1654 72.1979 41.9975 72.5104 43.7115 73.1785C45.4256 73.8467 46.9859 74.8564 48.2976 76.1463L56.2788 71.0569C54.2289 68.237 51.5231 65.9587 48.3953 64.4189C45.2675 62.8792 41.8118 62.1244 38.3268 62.2197C34.4131 62.2207 30.5647 63.2232 27.1478 65.1316C23.731 67.0401 20.8592 69.7911 18.8059 73.1229C16.7526 76.4547 15.5859 80.2566 15.4169 84.1666C15.2479 88.0767 16.0822 91.965 17.8404 95.4615C19.5986 98.9581 22.2223 101.947 25.4618 104.143C28.7012 106.339 32.4488 107.67 36.3478 108.008C40.2468 108.347 44.1677 107.682 47.7373 106.078C51.307 104.473 54.4067 101.982 56.7415 98.8408L56.8109 98.7483V81.1664Z" fill="#3C4257"/>
</svg>
