<svg width="364" height="15" viewBox="0 0 364 15" fill="none" xmlns="http://www.w3.org/2000/svg">
<path d="M11.3237 7.27721C11.6947 6.59813 11.8866 5.83576 11.8815 5.06198C11.8924 4.54416 11.7984 4.0295 11.6052 3.54894C11.412 3.06838 11.1237 2.63188 10.7574 2.26565C10.3912 1.89941 9.95466 1.61102 9.4741 1.41784C8.99354 1.22466 8.47888 1.13073 7.96106 1.14159H0.916992V14.2735H8.34353C8.88751 14.2695 9.42521 14.1567 9.92498 13.9419C10.4247 13.727 10.8765 13.4144 11.2537 13.0224C11.6308 12.6304 11.9258 12.1669 12.1212 11.6592C12.3166 11.1516 12.4085 10.6099 12.3915 10.0661C12.3842 9.03804 12.0049 8.04733 11.3237 7.27721ZM4.07247 3.70739H7.7698C8.08541 3.74262 8.37697 3.89296 8.5887 4.12964C8.80043 4.36632 8.91747 4.67272 8.91747 4.99029C8.91747 5.30785 8.80043 5.61426 8.5887 5.85094C8.37697 6.08762 8.08541 6.23796 7.7698 6.27319H4.07247V3.70739ZM8.21603 11.6758H4.07247V8.87089H8.21603C8.39253 8.87494 8.56646 8.91423 8.72753 8.98655C8.88859 9.05886 9.03353 9.16276 9.15384 9.29198C9.27414 9.42119 9.36736 9.57312 9.428 9.73893C9.48864 9.90474 9.51549 10.081 9.50693 10.2574C9.51548 10.4345 9.48874 10.6116 9.42829 10.7783C9.36783 10.945 9.27484 11.0981 9.15474 11.2285C9.03464 11.359 8.88982 11.4643 8.72867 11.5383C8.56752 11.6124 8.39326 11.6537 8.21603 11.6598V11.6758Z" fill="#1601C3"/>
<path d="M32.7276 1.12573V7.50045C32.7598 7.97541 32.6941 8.45187 32.5345 8.90037C32.3749 9.34887 32.1248 9.75986 31.7998 10.1077C31.4747 10.4555 31.0817 10.7328 30.645 10.9224C30.2084 11.112 29.7374 11.2099 29.2613 11.2099C28.7853 11.2099 28.3143 11.112 27.8777 10.9224C27.441 10.7328 27.0479 10.4555 26.7229 10.1077C26.3979 9.75986 26.1478 9.34887 25.9882 8.90037C25.8286 8.45187 25.7629 7.97541 25.7951 7.50045V1.12573H22.6077V7.50045C22.5444 8.41615 22.6701 9.33504 22.977 10.2001C23.284 11.0651 23.7655 11.8579 24.3918 12.5289C25.018 13.2 25.7756 13.735 26.6174 14.1008C27.4593 14.4667 28.3673 14.6555 29.2852 14.6555C30.2031 14.6555 31.1112 14.4667 31.953 14.1008C32.7949 13.735 33.5524 13.2 34.1787 12.5289C34.805 11.8579 35.2865 11.0651 35.5934 10.2001C35.9003 9.33504 36.026 8.41615 35.9627 7.50045V1.12573H32.7276Z" fill="#1601C3"/>
<path d="M56.3303 1.12573L52.7764 5.90677L49.2066 1.12573H45.2861L50.8162 8.71166V14.2576H54.7366V8.71166L60.2508 1.12573H56.3303Z" fill="#1601C3"/>
<path d="M96.8758 1.12573V9.30131L90.3417 1.12573H87.1543V14.2576H90.3417V6.4008L96.8758 14.2576H100.063V1.12573H96.8758Z" fill="#1601C3"/>
<path d="M118.71 0.775043C117.338 0.771889 115.996 1.17584 114.854 1.93567C113.712 2.69551 112.821 3.7771 112.294 5.04356C111.767 6.31003 111.627 7.70441 111.893 9.05023C112.159 10.3961 112.818 11.6328 113.787 12.6039C114.755 13.575 115.991 14.2369 117.336 14.5057C118.681 14.7744 120.076 14.6381 121.343 14.1138C122.611 13.5896 123.695 12.7011 124.457 11.5607C125.22 10.4203 125.627 9.07941 125.627 7.70761C125.629 6.79797 125.451 5.89682 125.105 5.05582C124.758 4.21482 124.249 3.45049 123.607 2.80654C122.964 2.16259 122.201 1.65171 121.361 1.30312C120.521 0.954538 119.62 0.77504 118.71 0.775043ZM118.71 11.5802C117.94 11.5802 117.188 11.3518 116.548 10.9238C115.908 10.4958 115.41 9.88748 115.116 9.176C114.822 8.46453 114.746 7.68185 114.898 6.92711C115.049 6.17237 115.421 5.47956 115.966 4.93637C116.512 4.39318 117.206 4.02407 117.961 3.87583C118.717 3.72759 119.499 3.80688 120.209 4.10364C120.92 4.4004 121.526 4.90129 121.951 5.54285C122.377 6.18442 122.602 6.93785 122.599 7.70761C122.595 8.73616 122.183 9.72113 121.454 10.4469C120.725 11.1727 119.739 11.5802 118.71 11.5802Z" fill="#1601C3"/>
<path d="M154.249 1.12573L150.663 9.17379L147.859 1.12573H144.671L141.882 9.17379L138.265 1.12573H134.822L140.448 14.2576H143.922L146.376 6.95855L148.815 14.2576H152.289L157.931 1.12573H154.249Z" fill="#1601C3"/>
<path d="M194.473 5.98643C194.47 4.72563 193.979 3.51507 193.102 2.60881C192.226 1.70256 191.032 1.17105 189.772 1.12573H183.397V14.2576H186.585V11.4687H189.294C190.598 11.4648 191.852 10.9711 192.808 10.0855C193.765 9.19987 194.354 7.98704 194.458 6.68766V6.0661L194.473 5.98643ZM189.262 8.24943H186.601V4.32904H189.31C189.822 4.34152 190.308 4.5535 190.665 4.91977C191.023 5.28604 191.223 5.77753 191.222 6.28924C191.225 6.54725 191.175 6.80313 191.077 7.04191C190.98 7.2807 190.835 7.49756 190.653 7.68001C190.471 7.86246 190.254 8.00684 190.015 8.10459C189.776 8.20235 189.52 8.25155 189.262 8.24943Z" fill="#1601C3"/>
<path d="M212.991 14.2576H216.482L210.203 1.12573H207.812L201.294 14.2576H204.848L205.74 12.4568H212.115L212.991 14.2576ZM207.047 9.89097L208.912 5.66768L210.872 9.89097H207.047Z" fill="#1601C3"/>
<path d="M233.535 1.12573L229.981 5.90677L226.395 1.12573H222.475L228.021 8.71166V14.2576H231.941V8.71166L237.455 1.12573H233.535Z" fill="#1601C3"/>
<path d="M268.756 11.1022V1.12573H265.568V14.2576H276.931V11.0703L268.756 11.1022Z" fill="#1601C3"/>
<path d="M297.792 14.2576H301.298L295.019 1.12573H292.597L286.062 14.2576H289.632L290.509 12.4568H296.884L297.792 14.2576ZM291.864 9.89097L293.712 5.68363L295.672 9.90692L291.864 9.89097Z" fill="#1601C3"/>
<path d="M320.278 1.12573H307.146V3.94648H312.135V14.2576H315.322V3.94648H320.31L320.278 1.12573Z" fill="#1601C3"/>
<path d="M340.582 3.94648V1.12573H330.701V14.2576H340.582V11.4368H333.857V9.11008H339.164V6.28924H333.857V3.94648H340.582Z" fill="#1601C3"/>
<path d="M363.036 14.2576L360.135 10.2894C360.866 9.91426 361.474 9.33872 361.889 8.63024C362.304 7.92177 362.508 7.10971 362.478 6.28924C362.517 5.63308 362.423 4.97585 362.201 4.35706C361.979 3.73826 361.635 3.17068 361.188 2.68838C360.742 2.20608 360.202 1.81905 359.602 1.55051C359.002 1.28198 358.354 1.13748 357.697 1.12573H351.322V14.2576H354.51V11.0703H356.82L358.972 14.2576H363.036ZM354.605 4.36085H357.299C357.552 4.36085 357.803 4.41072 358.037 4.50763C358.27 4.60454 358.483 4.74663 358.662 4.9257C358.841 5.10476 358.983 5.31729 359.08 5.55125C359.177 5.7852 359.227 6.036 359.227 6.28924C359.225 6.5376 359.173 6.78302 359.073 7.0103C358.973 7.23758 358.827 7.44188 358.645 7.61065C358.462 7.77943 358.248 7.90901 358.013 7.99147C357.779 8.07393 357.53 8.10753 357.283 8.0901H354.605V4.36085Z" fill="#1601C3"/>
</svg>
