<svg width="34" height="24" viewBox="0 0 34 24" fill="none" xmlns="http://www.w3.org/2000/svg">
<rect x="0.5" y="0.5" width="33" height="23" rx="3.5" fill="white" stroke="#D9D9D9"/>
<path fill-rule="evenodd" clip-rule="evenodd" d="M24.951 18.6209C24.951 18.9731 24.8111 19.3109 24.562 19.5599C24.313 19.809 23.9752 19.9489 23.623 19.9489H10.3295C10.155 19.9491 9.98213 19.9149 9.82084 19.8482C9.65954 19.7816 9.51297 19.6838 9.38949 19.5604C9.26602 19.4371 9.16806 19.2906 9.10123 19.1294C9.0344 18.9682 9 18.7954 9 18.6209V5.32799C9 5.15347 9.0344 4.98066 9.10123 4.81944C9.16806 4.65823 9.26602 4.51176 9.38949 4.38843C9.51297 4.26509 9.65954 4.1673 9.82084 4.10065C9.98213 4.03401 10.155 3.9998 10.3295 4H23.6221C23.9743 4 24.3121 4.13991 24.5611 4.38896C24.8102 4.63801 24.9501 4.97579 24.9501 5.32799L24.951 18.6209Z" fill="#EDAA00"/>
<path d="M17.9063 12.1466V9.29053L18.6521 9.11397V9.48792C18.6521 9.48792 18.8449 8.99566 19.2928 8.88127C19.4308 8.84656 19.5002 8.86738 19.5002 8.86738V9.59597C19.366 9.5978 19.2334 9.62547 19.1096 9.67746C18.8332 9.78641 18.6943 10.0248 18.6943 10.387V11.964L17.9063 12.1466ZM13.9764 13.0753C13.9764 13.0753 13.8556 12.8942 13.8556 12.2507V10.8289L13.4717 10.9194V10.3342L13.8559 10.2437V9.60502L14.6488 9.4179V10.055L15.209 9.92223V10.5078L14.6488 10.6409V12.0896C14.6488 12.7478 14.8236 12.8743 14.8236 12.8743L13.9764 13.0753ZM15.2917 11.3764C15.2917 10.8684 15.3641 10.4981 15.5192 10.2138C15.7036 9.87636 16.007 9.65663 16.4482 9.55613C17.3178 9.35844 17.6313 9.87334 17.619 10.5633C17.615 10.8099 17.616 10.9303 17.616 10.9303L16.0839 11.2904V11.3151C16.0839 11.798 16.1853 12.0265 16.4908 11.9613C16.7546 11.9058 16.8279 11.7404 16.8487 11.5363C16.8524 11.5028 16.8536 11.4192 16.8536 11.4192L17.5716 11.2472C17.5716 11.2472 17.5734 11.3061 17.5716 11.3716C17.5649 11.6459 17.4853 12.3262 16.4878 12.5616C15.5431 12.7859 15.2908 12.2088 15.2908 11.3764H15.2917ZM16.479 10.0879C16.2252 10.1456 16.0921 10.3946 16.0867 10.8072L16.8575 10.6237C16.859 10.6049 16.859 10.5633 16.859 10.4993C16.8575 10.1881 16.7612 10.0239 16.4793 10.0879H16.479ZM22.1821 9.70613C22.1519 8.8363 22.3777 8.14574 23.348 7.92542C23.9674 7.78477 24.2019 7.94534 24.3208 8.10077C24.4352 8.24927 24.4793 8.44937 24.4793 8.72976V8.78167L23.7193 8.96276V8.85682C23.7193 8.52482 23.6287 8.39806 23.3873 8.45842C23.1003 8.53056 22.9844 8.8028 22.9844 9.34486V9.59748C22.9844 10.1483 23.0598 10.4006 23.3903 10.3312C23.6776 10.2708 23.7169 10.0197 23.7223 9.79879C23.7223 9.76408 23.7244 9.65301 23.7244 9.65301L24.4832 9.47434V9.59235C24.4811 10.3143 24.1005 10.7694 23.387 10.9354C22.4052 11.166 22.2126 10.5977 22.1824 9.70613H22.1821ZM19.5572 10.9237C19.5572 10.2621 19.9454 10.0529 20.5288 9.81177C21.053 9.59476 21.0642 9.48701 21.0666 9.29868C21.0693 9.14023 20.996 9.00411 20.7346 9.07081C20.4947 9.13117 20.431 9.30562 20.4183 9.44446C20.4139 9.49322 20.4123 9.54219 20.4135 9.59114L19.678 9.76468C19.673 9.61809 19.6901 9.47159 19.7287 9.33007C19.8464 8.93439 20.1956 8.66819 20.7974 8.52905C21.5797 8.34796 21.8408 8.69203 21.842 9.22624V10.4912C21.842 11.1029 21.9555 11.1923 21.9555 11.1923L21.2332 11.3634C21.1933 11.2799 21.1608 11.193 21.136 11.1038C21.136 11.1038 20.9782 11.5019 20.4331 11.6305C19.8597 11.7651 19.5578 11.4108 19.5578 10.924L19.5572 10.9237ZM21.0624 10.0206C20.9406 10.106 20.812 10.1812 20.6779 10.2455C20.4364 10.3635 20.3281 10.5084 20.3281 10.7317C20.3281 10.9252 20.4488 11.0525 20.6661 10.9982C20.9 10.9397 21.0624 10.7214 21.0624 10.4187V10.0206ZM9.83181 15.0773C9.74939 15.0771 9.66854 15.0547 9.59777 15.0124C9.52699 14.9702 9.46892 14.9097 9.42966 14.8372C9.3904 14.7647 9.3714 14.683 9.37466 14.6006C9.37792 14.5183 9.40333 14.4383 9.4482 14.3692L9.45303 14.3629L9.46179 14.3607L10.5393 14.1063V14.9251L10.5224 14.9291C10.2779 14.9879 9.98574 15.0546 9.92538 15.067C9.89447 15.0739 9.86288 15.0774 9.83121 15.0773H9.83181ZM9.83181 16.1249C9.71072 16.1249 9.59457 16.0769 9.50881 15.9914C9.42304 15.9059 9.37466 15.7899 9.37426 15.6688C9.37378 15.5804 9.39951 15.4939 9.4482 15.4201L9.45303 15.412L9.46179 15.4102L10.5393 15.1557V15.9746L10.5224 15.9791C10.2779 16.0376 9.98574 16.1055 9.92538 16.1173C9.89436 16.1234 9.86282 16.1264 9.83121 16.1264L9.83181 16.1249ZM9.83181 17.1743C9.71043 17.1742 9.59405 17.1259 9.50826 17.0401C9.42246 16.9542 9.37426 16.8378 9.37426 16.7164C9.37378 16.628 9.39951 16.5415 9.4482 16.4677L9.45303 16.4593L10.5396 16.2033V17.0222L10.5227 17.0264C10.2646 17.0886 9.97759 17.1534 9.92568 17.1652C9.89464 17.1711 9.86311 17.1742 9.83151 17.1743" fill="#231F20"/>
<path d="M9.70504 14.0737L9.70473 9.49246L10.5399 9.29507V13.876L9.70504 14.0737Z" fill="#231F20"/>
<path d="M11.7855 13.6841C11.7822 13.5496 11.7265 13.4216 11.6302 13.3277C11.5339 13.2337 11.4047 13.181 11.2701 13.181C11.1356 13.181 11.0063 13.2337 10.91 13.3277C10.8137 13.4216 10.758 13.5496 10.7548 13.6841V17.9662C10.7554 18.3361 10.9026 18.6905 11.164 18.9521C11.4255 19.2136 11.7799 19.3608 12.1498 19.3615C12.5397 19.3615 13.6081 19.3597 13.6081 19.3597V15.5813C13.6083 15.4702 13.5811 15.3608 13.5288 15.2628C13.4765 15.1648 13.4008 15.0813 13.3084 15.0196L12.0082 14.1365V16.1418C12.009 16.1568 12.0067 16.1718 12.0015 16.1859C11.9963 16.2 11.9883 16.2129 11.9779 16.2238C11.9676 16.2347 11.9551 16.2434 11.9413 16.2493C11.9275 16.2553 11.9126 16.2583 11.8976 16.2583C11.8826 16.2583 11.8677 16.2553 11.8539 16.2493C11.8401 16.2434 11.8276 16.2347 11.8172 16.2238C11.8069 16.2129 11.7989 16.2 11.7937 16.1859C11.7885 16.1718 11.7862 16.1568 11.787 16.1418C11.787 16.1203 11.7843 13.9488 11.7843 13.6841H11.7855ZM12.4815 10.4894C12.3236 10.5258 12.1754 10.596 12.047 10.6949C11.9187 10.7939 11.8132 10.9194 11.7378 11.0628V10.742L10.986 10.92V12.9763C11.1178 12.9243 11.2615 12.9097 11.4011 12.9341C11.5408 12.9586 11.671 13.0211 11.7773 13.1149V11.7869C11.7773 11.469 11.9361 11.2149 12.1618 11.1651C12.3324 11.1277 12.4742 11.1887 12.4742 11.4914V13.4287L13.2659 13.2428V11.1938C13.2659 10.6967 13.0751 10.3487 12.4811 10.4894H12.4815ZM23.9912 7.55721C23.8943 7.55727 23.7996 7.5286 23.719 7.47482C23.6384 7.42105 23.5756 7.34458 23.5385 7.2551C23.5013 7.16561 23.4916 7.06713 23.5104 6.97209C23.5293 6.87706 23.5759 6.78975 23.6443 6.7212C23.7128 6.65265 23.8 6.60595 23.895 6.58699C23.9901 6.56803 24.0886 6.57767 24.1781 6.61469C24.2676 6.65171 24.3442 6.71445 24.398 6.79497C24.4519 6.87549 24.4807 6.97018 24.4808 7.06706C24.4805 7.19679 24.4289 7.32114 24.3371 7.41285C24.2453 7.50456 24.1209 7.55615 23.9912 7.5563V7.55721ZM23.9912 6.63848C23.9065 6.63848 23.8237 6.66359 23.7533 6.71064C23.6829 6.75768 23.628 6.82455 23.5956 6.90279C23.5631 6.98103 23.5546 7.06713 23.5711 7.1502C23.5876 7.23327 23.6284 7.30958 23.6883 7.36949C23.7481 7.4294 23.8244 7.47021 23.9075 7.48677C23.9905 7.50333 24.0766 7.49489 24.1549 7.46252C24.2332 7.43015 24.3001 7.37531 24.3472 7.30492C24.3943 7.23453 24.4194 7.15175 24.4195 7.06706C24.4193 6.9535 24.3742 6.84462 24.2939 6.76429C24.2136 6.68396 24.1048 6.63872 23.9912 6.63848Z" fill="#231F20"/>
<path d="M23.8129 6.77582H24.0241C24.1083 6.77582 24.175 6.81777 24.175 6.92914C24.175 7.00671 24.1406 7.06647 24.0754 7.07673C24.1358 7.08277 24.166 7.11536 24.1687 7.19957C24.1687 7.2373 24.1705 7.28438 24.1723 7.32029C24.1723 7.33055 24.1749 7.34065 24.1799 7.34962C24.1848 7.3586 24.192 7.36617 24.2007 7.3716H24.0932C24.0824 7.35613 24.0767 7.33766 24.0769 7.31879C24.0733 7.28287 24.0739 7.24937 24.0727 7.20591C24.0727 7.14071 24.0513 7.11204 23.9855 7.11204H23.9097V7.3716H23.8141L23.8129 6.77582ZM23.9846 7.04202C23.9976 7.04322 24.0107 7.04152 24.0229 7.03703C24.0351 7.03254 24.0462 7.02539 24.0554 7.01608C24.0645 7.00678 24.0714 6.99556 24.0757 6.98323C24.0799 6.97091 24.0814 6.95779 24.08 6.94484C24.08 6.88115 24.0528 6.84795 23.9894 6.84795H23.9097V7.04202H23.9846Z" fill="#231F20"/>
</svg>
