<svg width="34" height="24" viewBox="0 0 34 24" fill="none" xmlns="http://www.w3.org/2000/svg">
<rect x="0.5" y="0.5" width="33" height="23" rx="3.5" fill="#F884A1" stroke="#D9D9D9"/>
<path fill-rule="evenodd" clip-rule="evenodd" d="M19.7841 9.43561L20.7239 4.61813C20.837 4.07767 20.526 3.53306 20.0051 3.37508C19.4235 3.22542 18.8379 3.57464 18.6885 4.16498L17.8369 7.16626L17.1656 4.21071C17.1131 3.93632 16.9516 3.69104 16.7214 3.53306C16.4912 3.37508 16.2045 3.32104 15.9339 3.37924C15.4008 3.49565 15.0535 4.13588 15.1868 4.7179L15.5828 8.06577C15.2387 7.7127 14.8369 7.60393 14.3712 7.88164L14.3107 7.92321C13.8863 8.22072 13.7999 8.82866 14.0726 9.3824C13.8469 9.39547 13.6262 9.49236 13.4585 9.66929L13.4181 9.71502C13.0263 10.1308 13.1031 10.8333 13.5917 11.3364L13.9887 11.7437C14.0333 13.6263 15.521 14.9449 17.2751 14.9449C17.2958 14.9449 17.3158 14.942 17.3348 14.9365C19.7108 14.9121 20.755 13.4553 20.9339 11.2449C20.9904 10.5465 20.8652 10.0684 20.6027 9.78153C20.4574 9.62355 20.3039 9.54872 20.1868 9.53209L19.7841 9.43561ZM19.3588 9.33372L20.2958 4.52666C20.3604 4.21071 20.1787 3.89891 19.8879 3.80745C19.5487 3.72014 19.2014 3.93217 19.1085 4.28554L18.0221 8.1186C17.9898 8.23916 17.8687 8.30568 17.7515 8.27242C17.6586 8.24602 17.5987 8.16195 17.5941 8.06809L16.7376 4.30217C16.7052 4.14003 16.6124 3.99868 16.4791 3.90722C16.3458 3.81576 16.1802 3.78666 16.0227 3.81992C15.74 3.88228 15.53 4.27307 15.6148 4.62228L15.6189 4.64723L16.1084 8.80123L16.4163 9.27427C16.5507 9.08212 16.7446 8.96239 16.9761 8.90849C17.17 8.86692 17.3679 8.87107 17.5577 8.90433C17.605 8.91129 17.641 8.92117 17.661 8.92664C17.6648 8.9277 17.6681 8.9286 17.6708 8.92928L19.3588 9.33372ZM16.2227 9.78473L15.7406 9.04412C15.7242 9.02623 15.7107 9.00555 15.7008 8.98286L15.4738 8.63411C15.1951 8.21422 14.9245 8.06872 14.6014 8.25995L14.557 8.29321C14.3066 8.47198 14.2743 8.89603 14.5328 9.30344L15.4859 10.7627C15.6555 11.0204 15.9947 11.0869 16.2451 10.9123L16.2936 10.8832C16.3605 10.8382 16.416 10.7762 16.4558 10.7048C16.2164 10.4525 16.1572 10.1405 16.2227 9.78473ZM16.8967 10.5116C16.8717 10.4725 16.8345 10.4412 16.7887 10.4238C16.6066 10.2434 16.5994 10.0182 16.6853 9.72333C16.75 9.50715 16.8752 9.3949 17.073 9.34917C17.2023 9.32007 17.3436 9.32422 17.4809 9.34917C17.4964 9.35234 17.51 9.35491 17.5217 9.35711C17.5406 9.36066 17.5542 9.36323 17.5617 9.3658L20.106 9.97692L20.1545 9.99355C20.1948 10.0102 20.2393 10.0434 20.2837 10.0892C20.4533 10.2763 20.5502 10.6296 20.5018 11.2117C20.3362 13.2487 19.4154 14.5126 17.2265 14.4918C17.2142 14.4918 17.2022 14.4928 17.1905 14.4948C15.8638 14.4584 14.7416 13.5667 14.4809 12.2487L14.8073 12.5836C15.1991 12.9702 15.817 12.9619 16.1966 12.5628L16.241 12.5171C16.5423 12.1934 16.594 11.7167 16.3982 11.3396C16.4271 11.3236 16.4555 11.3059 16.4834 11.2865L16.5319 11.2532C16.6416 11.1763 16.7338 11.0771 16.8046 10.963C16.952 11.0421 17.1293 11.1114 17.3396 11.1701L17.9494 11.3156C17.4971 11.5775 17.2144 12.0639 17.1821 12.8081C17.174 12.9328 17.2669 13.0367 17.3881 13.045C17.5092 13.0492 17.6102 12.9577 17.6183 12.833C17.6506 12.1595 17.905 11.7978 18.3129 11.6399C18.531 11.5567 18.7692 11.5401 18.9792 11.5609L19.0317 11.5692C19.3104 11.6232 19.3993 11.195 19.1206 11.1285L17.4446 10.7419C17.2027 10.6738 17.0239 10.5983 16.8967 10.5116ZM13.7735 9.98525C13.9411 9.80467 14.2141 9.7829 14.4108 9.92368L15.1224 11.0163C15.3176 11.3097 15.6337 11.4653 15.9532 11.4595C16.1275 11.6773 16.1182 11.9994 15.922 12.2053L15.8816 12.251C15.6716 12.4713 15.3283 12.4755 15.1143 12.2593L13.9027 11.0246C13.5675 10.6795 13.5231 10.2555 13.7331 10.031L13.7735 9.98525ZM12.158 19.1646C12.158 19.8589 11.633 20.3328 10.9465 20.3328C10.4659 20.3328 10.054 20.1083 9.79953 19.7508L10.272 19.2644C10.4134 19.4515 10.6476 19.6552 10.9546 19.6552C11.2413 19.6552 11.4392 19.4806 11.4392 19.1979C11.4392 18.8986 11.2049 18.8237 10.8374 18.7156C10.163 18.5119 9.88838 18.1502 9.88838 17.6805C9.88838 17.0901 10.3245 16.5829 11.0111 16.5829C11.4432 16.5829 11.843 16.7908 12.0207 17.1941L11.4513 17.5641C11.3423 17.3811 11.1928 17.2606 10.9909 17.2606C10.7526 17.2606 10.6032 17.4269 10.6032 17.6389C10.6032 17.8925 10.8213 17.9715 11.1686 18.0754C11.7138 18.2417 12.158 18.5202 12.158 19.1646ZM12.4043 19.0067C12.4043 19.7342 12.9939 20.3328 13.7208 20.3328C14.4478 20.3328 15.0374 19.7342 15.0374 19.0067C15.0374 18.2791 14.4478 17.6805 13.7208 17.6805C12.9939 17.6805 12.4043 18.2791 12.4043 19.0067ZM13.7207 19.6677C14.072 19.6677 14.3507 19.3808 14.3507 19.0067C14.3507 18.6325 14.072 18.3456 13.7207 18.3456C13.3653 18.3456 13.0907 18.6325 13.0907 19.0067C13.0907 19.385 13.3693 19.6677 13.7207 19.6677ZM16.7376 16.6287V17.2938C16.3539 17.2772 16.0753 17.4768 16.0753 17.9174V18.1877C16.2288 18.0214 16.4468 17.9382 16.7174 17.9382V18.6117C16.3378 18.62 16.0753 18.8695 16.0753 19.2187V20.2663H15.3887V17.8759C15.3887 17.2024 15.8007 16.6287 16.6366 16.6287H16.7376ZM18.2359 20.3328C17.509 20.3328 16.9194 19.7342 16.9194 19.0067C16.9194 18.2791 17.509 17.6805 18.2359 17.6805C18.9629 17.6805 19.5525 18.2791 19.5525 19.0067C19.5525 19.7342 18.9629 20.3328 18.2359 20.3328ZM18.8659 19.0067C18.8659 19.3808 18.5913 19.6677 18.2359 19.6677C17.8845 19.6677 17.6059 19.385 17.6059 19.0067C17.6059 18.6325 17.8845 18.3456 18.2359 18.3456C18.5872 18.3456 18.8659 18.6325 18.8659 19.0067ZM20.5904 18.038V17.7511H19.924V20.2663H20.6106V19.1189C20.6106 18.7032 20.8488 18.4704 21.2608 18.4704V17.7137C20.9498 17.7013 20.7277 17.8093 20.5904 18.038ZM22.3432 18.3664V18.9817C22.3432 19.4224 22.6218 19.6178 23.0055 19.6053V20.2705H22.9045C22.0645 20.2705 21.6566 19.6968 21.6566 19.0233V16.9446H22.3432V17.3396C22.3432 17.6805 22.6137 17.9382 22.9853 17.9465V18.6159C22.7107 18.6159 22.4966 18.5327 22.3432 18.3664ZM23.8253 20.3079C24.0757 20.3079 24.2857 20.0959 24.2857 19.834C24.2857 19.5762 24.0797 19.36 23.8253 19.36C23.5709 19.36 23.3649 19.5721 23.3649 19.834C23.3649 20.0959 23.5709 20.3079 23.8253 20.3079Z" fill="white"/>
</svg>
