<svg width="34" height="24" viewBox="0 0 34 24" fill="none" xmlns="http://www.w3.org/2000/svg">
<rect x="0.5" y="0.5" width="33" height="23" rx="3.5" fill="white" stroke="#D9D9D9"/>
<path d="M10.5184 5.00076H15.8766C16.6245 5.00076 17.0897 5.62834 16.9152 6.40085L14.4206 17.4262C14.2446 18.196 13.4957 18.8242 12.7472 18.8242H7.38956C6.64265 18.8242 6.1764 18.196 6.35089 17.4262L8.84655 6.40085C9.02103 5.62834 9.76951 5.00076 10.5184 5.00076Z" fill="#E21836"/>
<path d="M15.4304 5H21.5922C22.34 5 22.0028 5.62758 21.8269 6.40009L19.3326 17.4255C19.1576 18.1953 19.2122 18.8234 18.4628 18.8234H12.3011C11.5517 18.8234 11.0879 18.1953 11.264 17.4255L13.758 6.40009C13.9351 5.62758 14.6821 5 15.4304 5Z" fill="#00447C"/>
<path d="M21.3479 5H26.7061C27.4551 5 27.9203 5.62758 27.7443 6.40009L25.2501 17.4255C25.0741 18.1953 24.3247 18.8234 23.5758 18.8234H18.2201C17.4707 18.8234 17.0059 18.1953 17.1814 17.4255L19.6761 6.40009C19.8505 5.62758 20.5985 5 21.3479 5Z" fill="#007B84"/>
<path d="M11.9175 8.53329C11.3665 8.53907 11.2037 8.53329 11.1518 8.52065C11.1318 8.61839 10.76 10.384 10.7589 10.3855C10.6789 10.7427 10.6206 10.9974 10.4228 11.1618C10.3104 11.2574 10.1793 11.3035 10.0273 11.3035C9.78294 11.3035 9.64058 11.1786 9.61668 10.9417L9.61211 10.8604C9.61211 10.8604 9.68655 10.3819 9.68655 10.3792C9.68655 10.3792 10.0768 8.77018 10.1467 8.55749C10.1503 8.54539 10.1514 8.53907 10.1523 8.53329C9.3927 8.54015 9.25805 8.53329 9.24878 8.52065C9.24368 8.538 9.22488 8.63775 9.22488 8.63775L8.82641 10.4512L8.79219 10.6051L8.72598 11.1081C8.72598 11.2574 8.75445 11.3792 8.81113 11.4822C8.99267 11.8087 9.5105 11.8577 9.80344 11.8577C10.1809 11.8577 10.5349 11.7751 10.7742 11.6244C11.1895 11.3718 11.2982 10.9769 11.3951 10.626L11.44 10.446C11.44 10.446 11.842 8.77488 11.9103 8.55749C11.9129 8.54539 11.914 8.53907 11.9175 8.53329ZM13.2852 9.8814C13.1883 9.8814 13.0112 9.9056 12.8522 9.98586C12.7944 10.0164 12.7398 10.0516 12.6822 10.0867L12.7342 9.8935L12.7058 9.86097C12.3684 9.93128 12.2929 9.94069 11.9813 9.98586L11.9552 10.0037C11.919 10.3126 11.8869 10.5447 11.7528 11.1517C11.7017 11.3755 11.6487 11.6013 11.5955 11.8245L11.6099 11.8529C11.9292 11.8355 12.0261 11.8355 12.3036 11.8402L12.3261 11.8151C12.3614 11.6292 12.3659 11.5856 12.444 11.209C12.4807 11.0305 12.5573 10.6382 12.595 10.4985C12.6644 10.4654 12.7328 10.4329 12.7981 10.4329C12.9536 10.4329 12.9347 10.5726 12.9287 10.6282C12.922 10.7217 12.8654 11.0269 12.8072 11.2889L12.7684 11.458C12.7414 11.5829 12.7118 11.7043 12.6847 11.8281L12.6965 11.8529C13.0112 11.8355 13.1072 11.8355 13.376 11.8402L13.4076 11.8151C13.4562 11.5247 13.4704 11.447 13.5566 11.0242L13.6 10.8299C13.6842 10.4497 13.7265 10.2569 13.6628 10.0999C13.5954 9.92388 13.4337 9.8814 13.2852 9.8814ZM14.8132 10.2795C14.6459 10.3125 14.5392 10.3346 14.4331 10.3488C14.328 10.3662 14.2255 10.3819 14.0638 10.405L14.051 10.417L14.0392 10.4266C14.0224 10.5505 14.0106 10.6577 13.9883 10.7836C13.9693 10.9139 13.9402 11.0619 13.8928 11.2746C13.8561 11.4374 13.8372 11.4942 13.8163 11.5514C13.7959 11.6087 13.7734 11.6644 13.7322 11.8245L13.7418 11.8393L13.7499 11.8529C13.901 11.8455 13.9999 11.8402 14.1015 11.8393C14.203 11.8355 14.3081 11.8393 14.4709 11.8402L14.4851 11.8283L14.5004 11.8151C14.5239 11.6707 14.5274 11.6318 14.5418 11.5614C14.556 11.4858 14.5806 11.3812 14.6408 11.1019C14.6692 10.9706 14.701 10.8398 14.7305 10.7059C14.7612 10.5726 14.7933 10.4412 14.8239 10.31L14.8193 10.2941L14.8132 10.2795ZM14.8167 9.74275C14.6647 9.65039 14.3979 9.6797 14.2183 9.80728C14.0393 9.93231 14.0189 10.1098 14.1704 10.2034C14.3198 10.2932 14.5877 10.2664 14.7657 10.1377C14.9443 10.01 14.9667 9.83417 14.8167 9.74275ZM15.7361 11.8818C16.0437 11.8818 16.3589 11.7945 16.5962 11.5356C16.7788 11.3256 16.8625 11.0132 16.8915 10.8845C16.986 10.4581 16.9124 10.2589 16.8201 10.1377C16.6798 9.95282 16.4319 9.89353 16.1748 9.89353C16.0202 9.89353 15.6519 9.90926 15.3641 10.1823C15.1575 10.3793 15.0621 10.6465 15.0045 10.9028C14.9464 11.1639 14.8795 11.6339 15.2994 11.8088C15.4289 11.8661 15.6157 11.8818 15.7361 11.8818ZM15.7121 10.9223C15.783 10.5994 15.8667 10.3283 16.0804 10.3283C16.2478 10.3283 16.2599 10.53 16.1855 10.854C16.1722 10.9259 16.1111 11.1933 16.0284 11.3072C15.9707 11.3912 15.9024 11.4422 15.8269 11.4422C15.8044 11.4422 15.6708 11.4422 15.6687 11.238C15.6677 11.1371 15.6876 11.0341 15.7121 10.9223ZM17.6604 11.8403L17.6844 11.8151C17.7185 11.6292 17.7241 11.5855 17.7996 11.2091C17.8373 11.0305 17.9154 10.6382 17.9521 10.4985C18.0216 10.4653 18.0889 10.4328 18.1563 10.4328C18.3108 10.4328 18.292 10.5725 18.2858 10.6281C18.2802 10.7217 18.2235 11.0268 18.1644 11.2888L18.1277 11.4579C18.0996 11.5829 18.069 11.7042 18.042 11.8282L18.0538 11.8529C18.3695 11.8356 18.4619 11.8356 18.7322 11.8403L18.7649 11.8151C18.8123 11.5246 18.8251 11.4469 18.9139 11.0242L18.9562 10.8298C19.0408 10.4496 19.0837 10.2569 19.021 10.0999C18.9516 9.92393 18.7889 9.88144 18.6425 9.88144C18.5455 9.88144 18.3675 9.90551 18.2093 9.9859C18.1527 10.0164 18.0961 10.0515 18.0404 10.0867L18.0889 9.89354L18.0629 9.86087C17.7257 9.93132 17.6486 9.94073 17.3374 9.9859L17.3135 10.0038C17.2758 10.3126 17.2451 10.5446 17.1109 11.1518C17.0599 11.3755 17.0068 11.6014 16.9538 11.8245L16.9681 11.8529C17.2879 11.8356 17.3834 11.8356 17.6604 11.8403ZM19.9806 11.8528C20.0004 11.7531 20.1184 11.1618 20.1194 11.1618C20.1194 11.1618 20.2198 10.728 20.226 10.7122C20.226 10.7122 20.2576 10.6671 20.2892 10.6492H20.3357C20.7744 10.6492 21.2697 10.6492 21.658 10.3551C21.9222 10.1535 22.1029 9.8557 22.1834 9.49378C22.2043 9.40504 22.2197 9.29951 22.2197 9.19397C22.2197 9.05536 22.1927 8.91823 22.1146 8.81108C21.9166 8.52592 21.5223 8.52068 21.0672 8.51853C21.0657 8.51853 20.8428 8.52068 20.8428 8.52068C20.2602 8.52808 20.0266 8.52592 19.9306 8.51382C19.9225 8.55752 19.9072 8.63523 19.9072 8.63523C19.9072 8.63523 19.6985 9.63091 19.6985 9.63252C19.6985 9.63252 19.1991 11.7495 19.1756 11.8492C19.6842 11.8429 19.8928 11.8429 19.9806 11.8528ZM20.3673 10.0841C20.3673 10.0841 20.5892 9.09045 20.5881 9.09421L20.5953 9.04326L20.5985 9.00441L20.6871 9.01382C20.6871 9.01382 21.1448 9.05428 21.1555 9.05536C21.3361 9.12729 21.4105 9.31268 21.3586 9.55468C21.3111 9.77584 21.1718 9.96177 20.9927 10.0516C20.8453 10.1277 20.6647 10.134 20.4786 10.134H20.3581L20.3673 10.0841ZM21.7488 10.9407C21.6902 11.198 21.6228 11.668 22.0406 11.8355C22.1738 11.8939 22.2932 11.9112 22.4145 11.9049C22.5426 11.8978 22.6614 11.8316 22.7713 11.7365C22.7614 11.7756 22.7515 11.8147 22.7415 11.854L22.7605 11.8791C23.061 11.8661 23.1542 11.8661 23.4798 11.8686L23.5093 11.8455C23.5569 11.5578 23.6017 11.2784 23.7252 10.728C23.7854 10.4644 23.8455 10.2033 23.9073 9.9407L23.8976 9.9118C23.5615 9.97593 23.4716 9.98964 23.1482 10.0368L23.1237 10.0574C23.1204 10.0842 23.117 10.1098 23.1139 10.1355C23.0636 10.0519 22.9907 9.9805 22.8783 9.936C22.7345 9.87778 22.3968 9.9528 22.1064 10.2249C21.9024 10.4192 21.8045 10.6854 21.7488 10.9407ZM22.4549 10.9564C22.5268 10.6393 22.6095 10.3709 22.8237 10.3709C22.9591 10.3709 23.0304 10.4996 23.0159 10.719C23.0044 10.7737 22.992 10.8314 22.9773 10.8966C22.9559 10.9908 22.9326 11.0843 22.91 11.1778C22.887 11.2418 22.8603 11.3022 22.8309 11.3424C22.7758 11.4228 22.6446 11.4727 22.5691 11.4727C22.5477 11.4727 22.4156 11.4727 22.411 11.2721C22.4099 11.1722 22.4299 11.0693 22.4549 10.9564ZM26.1418 9.90923L26.1158 9.87871C25.7832 9.94808 25.723 9.95911 25.4174 10.0016L25.3949 10.0247C25.3939 10.0285 25.3929 10.0343 25.3914 10.0395L25.3903 10.0343C25.1628 10.5746 25.1695 10.458 24.9843 10.8834C24.9832 10.864 24.9832 10.8519 24.9822 10.8314L24.9358 9.90923L24.9067 9.87871C24.5583 9.94808 24.55 9.95911 24.2282 10.0016L24.2032 10.0247C24.1996 10.0357 24.1996 10.0478 24.1976 10.061L24.1996 10.0657C24.2399 10.2773 24.2302 10.2301 24.2706 10.5641C24.2894 10.728 24.3144 10.8928 24.3332 11.0547C24.365 11.3256 24.3827 11.459 24.4215 11.8724C24.2042 12.2415 24.1528 12.3812 23.9435 12.7052L23.945 12.7085L23.7977 12.9483C23.7808 12.9736 23.7655 12.9909 23.7441 12.9983C23.7206 13.0103 23.69 13.0124 23.6476 13.0124H23.566L23.4446 13.4279L23.8609 13.4353C24.1052 13.4342 24.2588 13.3165 24.3415 13.1584L24.6032 12.6968H24.599L24.6266 12.6642C24.8026 12.2741 26.1418 9.90923 26.1418 9.90923ZM21.7488 15.3652H21.5723L22.2258 13.1401H22.4426L22.5114 12.9109L22.5181 13.1658C22.51 13.3233 22.6304 13.463 22.9467 13.4399H23.3125L23.4384 13.0114H23.3008C23.2216 13.0114 23.1849 12.9909 23.1895 12.9468L23.1828 12.6874H22.5054V12.6888C22.2864 12.6935 21.6323 12.7104 21.4999 12.7467C21.3397 12.7892 21.1708 12.9142 21.1708 12.9142L21.2371 12.6847H20.6035L20.4714 13.1401L19.8091 15.3993H19.6806L19.5546 15.8246H20.8167L20.7744 15.9665H21.3963L21.4376 15.8246H21.6121L21.7488 15.3652ZM21.231 13.5922C21.1295 13.6211 20.9407 13.7088 20.9407 13.7088L21.1086 13.1401H21.6121L21.4906 13.5544C21.4906 13.5544 21.3351 13.5639 21.231 13.5922ZM21.2407 14.4047C21.2407 14.4047 21.0825 14.4251 20.9784 14.4493C20.8759 14.4813 20.6836 14.5821 20.6836 14.5821L20.8571 13.9903H21.3632L21.2407 14.4047ZM20.9586 15.3705H20.4535L20.5999 14.871H21.1034L20.9586 15.3705ZM22.1748 13.9903H22.9028L22.7982 14.339H22.0605L21.9498 14.7203H22.5952L22.1065 15.4287C22.0723 15.4807 22.0416 15.4992 22.0075 15.5138C21.9733 15.5317 21.9284 15.5527 21.8764 15.5527H21.6973L21.5743 15.9702H22.0426C22.2861 15.9702 22.4299 15.8562 22.536 15.7066L22.8712 15.2344L22.9431 15.7139C22.9584 15.8037 23.0211 15.8562 23.0635 15.8767C23.1104 15.9009 23.1589 15.9424 23.2273 15.9486C23.3007 15.9518 23.3537 15.9544 23.389 15.9544H23.6191L23.7573 15.4871H23.6665C23.6144 15.4871 23.5247 15.478 23.5094 15.4612C23.4941 15.4408 23.4941 15.4093 23.4859 15.3615L23.4129 14.881H23.114L23.2451 14.7203H23.9813L24.0945 14.339H23.4129L23.5191 13.9903H24.1986L24.3246 13.5602H22.2987L22.1748 13.9903ZM16.0263 15.4676L16.1962 14.8857H16.8946L17.0222 14.453H16.3232L16.4299 14.0948H17.1129L17.2395 13.6757H15.5304L15.4065 14.0948H15.7948L15.6912 14.453H15.3019L15.1728 14.8931H15.561L15.3345 15.6629C15.304 15.7649 15.3489 15.8037 15.3774 15.851C15.4065 15.8971 15.436 15.9277 15.5023 15.945C15.5708 15.9607 15.6177 15.9701 15.6814 15.9701H16.4687L16.6089 15.4907L16.26 15.5401C16.1926 15.5401 16.0059 15.5317 16.0263 15.4676ZM16.1064 12.6821L15.9295 13.0114C15.8916 13.0833 15.8575 13.1279 15.8268 13.1485C15.7998 13.1658 15.7462 13.1731 15.6686 13.1731H15.5763L15.4529 13.5943H15.7595C15.907 13.5943 16.0202 13.5386 16.0743 13.5108C16.1324 13.4788 16.1477 13.4971 16.1926 13.4525L16.2962 13.3601H17.2538L17.3808 12.9216H16.6799L16.8023 12.6821H16.1064ZM17.5201 15.4761C17.5038 15.4519 17.5155 15.4092 17.5405 15.3205L17.8022 14.4287H18.7333C18.869 14.4267 18.9669 14.4251 19.0306 14.4204C19.0991 14.413 19.1735 14.3879 19.2546 14.3427C19.3383 14.2954 19.3812 14.2455 19.4173 14.1882C19.4577 14.1311 19.5225 14.0061 19.5781 13.8133L19.9071 12.6848L18.9409 12.6905C18.9409 12.6905 18.6434 12.7357 18.5124 12.7856C18.3802 12.8412 18.1914 12.9967 18.1914 12.9967L18.2786 12.6873H17.6818L16.8462 15.54C16.8166 15.6508 16.7967 15.7312 16.7921 15.7795C16.7906 15.8315 16.8559 15.883 16.8982 15.9219C16.9482 15.9607 17.0221 15.9544 17.093 15.9607C17.1676 15.9665 17.2737 15.9701 17.4201 15.9701H17.8787L18.0195 15.4808L17.6089 15.5207C17.565 15.5207 17.5333 15.4965 17.5201 15.4761ZM17.9711 13.8264H18.949L18.8868 14.027C18.8781 14.0317 18.8572 14.0171 18.7577 14.0292H17.9109L17.9711 13.8264ZM18.167 13.1537H19.1531L19.0822 13.3953C19.0822 13.3953 18.6174 13.3906 18.543 13.4047C18.2154 13.463 18.0241 13.6432 18.0241 13.6432L18.167 13.1537ZM18.9087 14.6987C18.9006 14.7287 18.8878 14.747 18.8699 14.7607C18.8501 14.7739 18.818 14.7786 18.77 14.7786H18.6307L18.6389 14.5343H18.0593L18.0358 15.7286C18.0349 15.8148 18.043 15.8646 18.1042 15.9046C18.1655 15.9544 18.3542 15.9608 18.6082 15.9608H18.9714L19.1025 15.5137L18.7864 15.5316L18.6812 15.5379C18.6669 15.5316 18.6531 15.5258 18.6379 15.5101C18.6245 15.4965 18.6021 15.5049 18.6057 15.4187L18.6082 15.1126L18.9398 15.0984C19.1189 15.0984 19.1954 15.0385 19.2607 14.9813C19.323 14.9266 19.3434 14.8637 19.3669 14.7786L19.4225 14.5076H18.9669L18.9087 14.6987Z" fill="#FEFEFE"/>
</svg>
