<svg width="34" height="24" viewBox="0 0 34 24" fill="none" xmlns="http://www.w3.org/2000/svg">
<rect x="0.5" y="0.5" width="33" height="23" rx="3.5" fill="white" stroke="#D9D9D9"/>
<path fill-rule="evenodd" clip-rule="evenodd" d="M14.5897 10.3052H15.6963L15.8742 9.39423H14.7674L14.5897 10.3052ZM14.4749 10.8912H15.5818L14.8786 14.4881C14.8273 14.5063 14.6689 14.5703 14.4501 14.5703C14.1548 14.5703 13.884 14.4534 13.884 14.0387C13.884 13.9608 13.8928 13.872 13.9126 13.771C14.1325 12.6486 14.4749 10.8912 14.4749 10.8912ZM25.4651 10.809C24.7285 10.809 24.4356 11.2474 24.2982 11.5143H24.2851L24.3276 10.8919H23.2338C23.2266 11.0288 23.1793 11.4601 23.1092 11.8322C23.1092 11.8322 22.8566 13.1378 22.8088 13.3878C22.7724 13.5787 22.7058 13.8611 22.7058 14.0249C22.7058 14.3737 22.88 14.5704 23.2686 14.5704C23.4865 14.5704 23.6436 14.5098 23.7008 14.4881L24.0666 12.6149C24.168 12.0976 24.5362 11.7591 24.974 11.7591C25.3272 11.7591 25.4961 12.0209 25.4961 12.2349C25.4961 12.4211 25.4501 12.6275 25.4145 12.81L25.2572 13.6122C25.2384 13.7085 25.1984 13.8935 25.1984 14.0386C25.1984 14.3932 25.3952 14.5704 25.769 14.5704C25.9731 14.5704 26.1024 14.5186 26.1941 14.4881L26.5223 12.8089C26.5935 12.4293 26.6197 12.2295 26.6197 11.9879C26.6197 11.2925 26.2195 10.809 25.4651 10.809ZM20.5487 11.6788C19.9301 11.6788 19.5874 12.3214 19.5874 12.8943C19.5874 13.3774 19.8022 13.7009 20.2903 13.7009C20.8422 13.7009 21.2741 13.2238 21.2741 12.4093C21.2741 12.0367 21.0789 11.6788 20.5487 11.6788ZM20.2224 14.5705C19.0374 14.5705 18.4703 13.8484 18.4703 12.9279C18.4703 11.6649 19.3238 10.809 20.6427 10.809C21.787 10.809 22.3947 11.513 22.3947 12.4172C22.3947 13.7721 21.4831 14.5705 20.2224 14.5705ZM16.0779 13.7044C16.0526 13.8339 16.0367 13.9246 16.0367 14.036C16.0367 14.4483 16.3079 14.5704 16.5954 14.5704C16.8252 14.5704 16.9675 14.5065 17.0195 14.4881L17.5517 11.7616L18.4122 11.7615L18.5821 10.8912L17.7217 10.8913L17.7635 10.6769C17.8413 10.2749 18.0275 10.0982 18.3496 10.0982C18.5647 10.0982 18.7387 10.137 18.7991 10.153L18.9611 9.32543C18.8921 9.30771 18.5741 9.22858 18.1034 9.22858C17.3535 9.22858 16.8621 9.69142 16.7168 10.4369L16.6279 10.8912H16.0676L15.8976 11.7615H16.4583C16.4583 11.7615 16.2371 12.8888 16.0779 13.7044ZM13.5299 10.8091C12.9744 10.8091 12.6689 11.2011 12.5494 11.5137H12.5366L12.5794 10.8912H11.4851C11.4755 11.1069 11.431 11.4718 11.3195 12.0454C11.2066 12.6267 11.0965 13.2066 10.9828 13.7709C10.9634 13.8674 10.9547 13.9618 10.9547 14.0417C10.9547 14.3373 11.0984 14.5701 11.5231 14.5701C11.7336 14.5701 11.8797 14.5146 11.9498 14.4881L12.2754 12.8206C12.3926 12.1826 12.6057 11.7608 13.2237 11.7608C13.5048 11.7608 13.7718 11.8218 13.8278 11.8385L14.0151 10.879C13.9747 10.8648 13.8124 10.8091 13.5299 10.8091ZM29.5835 12.3491C29.6427 12.0193 29.4539 11.6788 29.0272 11.6788C28.5062 11.6788 28.2774 12.0405 28.1752 12.3491H29.5835ZM30.0773 13.6875C30.0773 14.1878 29.6006 14.5714 28.7565 14.5714C27.5898 14.5714 27.0193 13.8329 27.0193 12.9288C27.0193 12.0314 27.6055 10.8099 29.0365 10.8099C29.9799 10.8099 30.6854 11.2862 30.6854 12.3766C30.6854 12.6448 30.6266 12.9363 30.6013 13.0531H28.0935C28.0893 13.3147 28.3063 13.7682 29.178 13.7682C29.5665 13.7682 30.0064 13.6287 30.0773 13.5932C30.0773 13.6204 30.0773 13.6695 30.0773 13.6875ZM9.58534 12.3491C9.64449 12.0193 9.45569 11.6788 9.029 11.6788C8.50796 11.6788 8.2792 12.0405 8.17693 12.3491H9.58534ZM10.0792 13.6875C10.0792 14.1878 9.60252 14.5714 8.75846 14.5714C7.59166 14.5714 7.02126 13.8329 7.02126 12.9288C7.02126 12.0314 7.6074 10.8099 9.03845 10.8099C9.98189 10.8099 10.6874 11.2862 10.6874 12.3766C10.6874 12.6448 10.6286 12.9363 10.6033 13.0531H8.09547C8.09128 13.3147 8.30821 13.7682 9.17993 13.7682C9.56843 13.7682 10.0083 13.6287 10.0792 13.5932C10.0792 13.6204 10.0792 13.6695 10.0792 13.6875ZM3.42856 9.66726H4.54199V13.2437C4.54199 13.7815 4.8054 14.056 5.22826 14.056C5.27139 14.056 5.29682 14.0504 5.3052 14.0483C5.11985 14.3334 4.87954 14.5672 4.32776 14.5672C3.74394 14.5672 3.42856 14.1553 3.42856 13.5372V9.66726Z" fill="#1A1919"/>
<path fill-rule="evenodd" clip-rule="evenodd" d="M5.0061 12.6299C4.90549 12.7896 4.8521 12.9744 4.8521 13.1631V13.2496C4.8521 13.6122 5.04481 13.7421 5.25522 13.7421C5.47029 13.7421 5.58541 13.5939 5.69103 13.4254C5.86801 13.1433 8.0306 9.66727 8.0306 9.66727H6.8733L5.0061 12.6299Z" fill="#00A3DA"/>
</svg>
