<svg width="34" height="24" viewBox="0 0 34 24" fill="none" xmlns="http://www.w3.org/2000/svg">
<rect x="0.5" y="0.5" width="33" height="23" rx="3.5" fill="white" stroke="#D9D9D9"/>
<path d="M23.8 10.7791C23.7299 10.3461 23.3443 10.0574 22.8185 10.0574C22.6433 10.0574 22.5031 10.0574 22.3278 10.0574C22.0123 10.0213 21.9422 10.1296 21.9422 10.3822C21.9422 11.6451 21.9422 12.872 21.9422 14.135C21.9422 14.7845 21.3112 15.4701 20.5751 15.6145C18.2616 16.1557 15.948 16.6609 13.6345 17.2022C13.3891 17.2744 13.1087 17.2744 12.8282 17.2744C12.7231 17.2744 12.5478 17.2022 12.5127 17.0939C12.4777 17.0218 12.5828 16.8774 12.653 16.8053C12.7581 16.7331 12.8983 16.6609 13.0385 16.5888C13.4592 16.4444 13.9149 16.3001 14.3355 16.1557C16.0532 15.5784 17.7708 15.001 19.4884 14.3876C20.2596 14.135 20.6803 13.5937 20.6803 12.9081C20.7153 10.743 20.6803 8.54186 20.6803 6.37678C20.6803 6.01593 20.505 5.72725 20.1194 5.58291C19.6637 5.40249 19.243 5.54683 18.8575 5.72725C16.4037 6.91805 13.985 8.10885 11.5312 9.29964C10.8302 9.66049 10.4095 10.1657 10.4095 10.8874C10.4095 12.9442 10.4095 15.001 10.4095 17.0579C10.4095 17.1661 10.4095 17.2744 10.4446 17.3465C10.6899 18.0321 11.3209 18.4652 12.1622 18.4652C13.8798 18.4652 15.5975 18.4652 17.3151 18.4652C19.0327 18.4652 20.7153 18.4652 22.4329 18.4652C22.8185 18.4652 23.134 18.393 23.4144 18.1404C23.765 17.8517 23.765 17.4548 23.765 17.0939C23.765 15.3187 23.8 10.7791 23.8 10.7791ZM16.6491 10.1296C16.8243 9.66049 17.2099 9.37181 17.7708 9.29964C18.1564 9.26356 18.4719 9.48006 18.542 9.84091C18.6121 10.3822 17.9811 11.0317 17.3151 11.0317C16.7893 11.0317 16.4738 10.6348 16.6491 10.1296Z" fill="#FD6727"/>
</svg>
